<?xml version="1.0" encoding="utf-8"?>
<!-- Generator: Adobe Illustrator 27.1.1, SVG Export Plug-In . SVG Version: 6.00 Build 0)  -->
<svg version="1.1" id="Шар_1" xmlns="http://www.w3.org/2000/svg" xmlns:xlink="http://www.w3.org/1999/xlink" x="0px" y="0px"
	 viewBox="0 0 200 200" style="enable-background:new 0 0 200 200;" xml:space="preserve">
<style type="text/css">
	.st0{fill:#3E8DE1;}
</style>
<path class="st0" d="M72.03,145.6L72.03,145.6c-4.77-5.33-4.31-13.51,1.02-18.28l82.66-73.94c5.33-4.77,13.51-4.31,18.28,1.02l0,0
	c4.77,5.33,4.31,13.51-1.02,18.28l-82.66,73.94C84.98,151.38,76.8,150.93,72.03,145.6z"/>
<path class="st0" d="M90.31,146.62L90.31,146.62c5.33-4.77,5.78-12.95,1.02-18.28L45.3,76.89c-4.77-5.33-12.95-5.78-18.28-1.02l0,0
	c-5.33,4.77-5.78,12.95-1.02,18.28l46.03,51.45C76.8,150.93,84.98,151.38,90.31,146.62z"/>
</svg>
