<?xml version="1.0" encoding="utf-8"?>
<!-- Generator: Adobe Illustrator 27.1.1, SVG Export Plug-In . SVG Version: 6.00 Build 0)  -->
<svg version="1.1" id="Шар_1" xmlns="http://www.w3.org/2000/svg" xmlns:xlink="http://www.w3.org/1999/xlink" x="0px" y="0px"
	 viewBox="0 0 1000 1000" style="enable-background:new 0 0 1000 1000;" xml:space="preserve">
<style type="text/css">
	.st0{fill:#3A3A3A;}
</style>
<path class="st0" d="M1005.59,705c0,0-70.63-74.37-246.22-116.53C703.39,672.01,608.12,727,500,727
	c-105.81,0-199.31-52.67-255.73-133.22C82,623,11.69,696.79,0,704l-58,387l1064-13L1005.59,705z M881.5,887.5H820V949h-56v-61.5
	h-61.5v-56H764V770h56v61.5h61.5V887.5z"/>
<g>
	<path class="st0" d="M499.5,678.5c-70.52,0-136.81-27.46-186.68-77.32c-49.86-49.86-77.32-116.16-77.32-186.68
		c0-42.51,9.8-83.1,29.12-120.64c18.29-35.53,44.89-66.96,76.99-90.95c3.13,89.01,75.16,158.6,164.4,158.6
		c85.48,0,155.71-63.89,163.76-148.77c59.58,50.34,93.74,123.83,93.74,201.77c0,70.52-27.46,136.81-77.32,186.68
		C636.31,651.04,570.02,678.5,499.5,678.5z"/>
	<path d="M341.14,203.88C344.76,292.7,416.81,362,506,362c85.42,0,155.66-63.61,164.17-148.27C729.19,263.96,763,337.02,763,414.5
		c0,35.57-6.97,70.08-20.71,102.57c-13.27,31.38-32.27,59.56-56.47,83.76c-24.2,24.2-52.38,43.2-83.76,56.47
		C569.58,671.03,535.07,678,499.5,678s-70.08-6.97-102.57-20.71c-31.38-13.27-59.56-32.27-83.76-56.47
		c-24.2-24.2-43.2-52.38-56.47-83.76C242.97,484.58,236,450.07,236,414.5c0-21.29,2.55-42.46,7.56-62.94
		c4.88-19.9,12.11-39.23,21.5-57.47C283.17,258.9,309.45,227.75,341.14,203.88 M342.07,201.93C277.1,250.13,235,327.4,235,414.5
		C235,560.58,353.42,679,499.5,679S764,560.58,764,414.5c0-81.42-36.79-154.24-94.65-202.77C661.89,295.4,591.6,361,506,361
		C417.08,361,344.68,290.22,342.07,201.93L342.07,201.93z"/>
</g>
<path class="st0" d="M506,73c-68.48,0-124,55.52-124,124s55.52,124,124,124s124-55.52,124-124S574.48,73,506,73z M506,231
	c-18.78,0-34-15.22-34-34c0-18.78,15.22-34,34-34s34,15.22,34,34C540,215.78,524.78,231,506,231z"/>
</svg>
