<?xml version="1.0" encoding="utf-8"?>
<!-- Generator: Adobe Illustrator 27.1.1, SVG Export Plug-In . SVG Version: 6.00 Build 0)  -->
<svg version="1.1" id="Шар_1" xmlns="http://www.w3.org/2000/svg" xmlns:xlink="http://www.w3.org/1999/xlink" x="0px" y="0px"
	 viewBox="0 0 1000 1000" style="enable-background:new 0 0 1000 1000;" xml:space="preserve">
<style type="text/css">
	.st0{fill:#3A3A3A;}
</style>
<path class="st0" d="M1006,1078l-1064,13L0,704c11.69-7.21,82-81,244.27-110.22C300.69,674.33,394.19,727,500,727
	c108.12,0,203.39-54.99,259.37-138.53C934.96,630.63,1005.59,705,1005.59,705L1006,1078z"/>
<g>
	<path class="st0" d="M499.5,678.5c-70.52,0-136.81-27.46-186.68-77.32c-49.86-49.86-77.32-116.16-77.32-186.68
		s27.46-136.81,77.32-186.68c49.86-49.86,116.16-77.32,186.68-77.32c70.52,0,136.81,27.46,186.68,77.32
		c49.86,49.86,77.32,116.16,77.32,186.68s-27.46,136.81-77.32,186.68C636.31,651.04,570.02,678.5,499.5,678.5z"/>
	<path d="M499.5,151c35.57,0,70.08,6.97,102.57,20.71c31.38,13.27,59.56,32.27,83.76,56.47c24.2,24.2,43.2,52.38,56.47,83.76
		C756.03,344.42,763,378.93,763,414.5s-6.97,70.08-20.71,102.57c-13.27,31.38-32.27,59.56-56.47,83.76
		c-24.2,24.2-52.38,43.2-83.76,56.47C569.58,671.03,535.07,678,499.5,678s-70.08-6.97-102.57-20.71
		c-31.38-13.27-59.56-32.27-83.76-56.47c-24.2-24.2-43.2-52.38-56.47-83.76C242.97,484.58,236,450.07,236,414.5
		s6.97-70.08,20.71-102.57c13.27-31.38,32.27-59.56,56.47-83.76c24.2-24.2,52.38-43.2,83.76-56.47
		C429.42,157.97,463.93,151,499.5,151 M499.5,150C353.42,150,235,268.42,235,414.5S353.42,679,499.5,679S764,560.58,764,414.5
		S645.58,150,499.5,150L499.5,150z"/>
</g>
</svg>
