<?xml version="1.0" encoding="utf-8"?>
<!-- Generator: Adobe Illustrator 27.1.1, SVG Export Plug-In . SVG Version: 6.00 Build 0)  -->
<svg version="1.1" id="Шар_1" xmlns="http://www.w3.org/2000/svg" xmlns:xlink="http://www.w3.org/1999/xlink" x="0px" y="0px"
	 viewBox="0 0 200 200" style="enable-background:new 0 0 200 200;" xml:space="preserve">
<style type="text/css">
	.st0{fill:url(#SVGID_1_);}
	.st1{fill:none;stroke:#FFFFFF;stroke-width:4;stroke-miterlimit:10;}
</style>
<linearGradient id="SVGID_1_" gradientUnits="userSpaceOnUse" x1="-9.094947e-13" y1="100" x2="200" y2="100">
	<stop  offset="8.524463e-08" style="stop-color:#0067BF"/>
	<stop  offset="1" style="stop-color:#55A2FF"/>
</linearGradient>
<circle class="st0" cx="100" cy="100" r="100"/>
<path class="st1" d="M113.09,120.88c-0.52,3.26-3.27,8.88-5.49,1.97c-2.16-6.75-1.5-9.99-5.41-14.61c-1.15-1.35-3.23-1.35-4.38,0
	c-3.92,4.61-3.29,7.87-5.41,14.61c-2.2,6.91-4.97,1.29-5.49-1.97c-2.66-24.03-17.22-26.54-8.06-41.8
	c5.56-9.25,15.58-3.86,19.52-1.21c1.01,0.68,2.28,0.68,3.29,0c3.92-2.66,13.93-8.06,19.52,1.21
	C130.32,94.34,115.73,96.84,113.09,120.88z"/>
<path class="st1" d="M90.29,141.37c0,0-62.43-25.79-17.94-79.48"/>
<path class="st1" d="M84.04,46.74c7.63,5.67-7.7,17.95-11.34,15.25C69.07,59.3,76.77,41.34,84.04,46.74z"/>
<path class="st1" d="M59.77,55.25c9.5-0.14,4.8,18.94,0.28,19S50.72,55.38,59.77,55.25z"/>
<path class="st1" d="M49.85,71.97c8.93-3.26,10.77,16.3,6.52,17.85C52.12,91.37,41.35,75.07,49.85,71.97z"/>
<path class="st1" d="M42.27,91.72c6.7-6.74,16.66,10.2,13.47,13.4C52.55,108.33,35.88,98.14,42.27,91.72z"/>
<path class="st1" d="M41.72,115.25c2.39-9.2,19.53,0.41,18.39,4.79C58.97,124.42,39.44,124.01,41.72,115.25z"/>
<path class="st1" d="M54.11,135.65c-2.58-9.15,17.06-9.51,18.29-5.16C73.63,134.85,56.57,144.36,54.11,135.65z"/>
<path class="st1" d="M69.52,152.82c-6.73-6.7,10.2-16.66,13.41-13.47S75.94,159.21,69.52,152.82z"/>
<path class="st1" d="M110.26,138.82c0,0,62.96-24.46,19.62-79.08"/>
<path class="st1" d="M118.52,44.34c-7.75,5.5,7.32,18.11,11.01,15.49C133.22,57.21,125.9,39.1,118.52,44.34z"/>
<path class="st1" d="M142.6,53.36c-9.5-0.34-5.2,18.83-0.68,18.99C146.45,72.52,151.65,53.69,142.6,53.36z"/>
<path class="st1" d="M152.16,70.29c-8.86-3.45-11.11,16.07-6.89,17.71S160.59,73.57,152.16,70.29z"/>
<path class="st1" d="M159.33,90.2c-6.56-6.88-16.88,9.84-13.75,13.12C148.7,106.59,165.57,96.75,159.33,90.2z"/>
<path class="st1" d="M159.38,113.74c-2.2-9.24-19.54-0.01-18.49,4.4S161.47,122.54,159.38,113.74z"/>
<path class="st1" d="M146.55,133.87c2.77-9.09-16.86-9.87-18.18-5.54C127.05,132.65,143.91,142.53,146.55,133.87z"/>
<path class="st1" d="M130.78,150.71c6.87-6.56-9.85-16.87-13.12-13.75C114.39,140.08,124.24,156.96,130.78,150.71z"/>
</svg>
