<?xml version="1.0" encoding="utf-8"?>
<!-- Generator: Adobe Illustrator 27.1.1, SVG Export Plug-In . SVG Version: 6.00 Build 0)  -->
<svg version="1.1" id="Шар_1" xmlns="http://www.w3.org/2000/svg" xmlns:xlink="http://www.w3.org/1999/xlink" x="0px" y="0px"
	 viewBox="0 0 200 200" style="enable-background:new 0 0 200 200;" xml:space="preserve">
<style type="text/css">
	.st0{fill:none;stroke:#333333;stroke-width:3;stroke-miterlimit:10;}
	.st1{fill:none;stroke:#000000;stroke-miterlimit:10;}
	.st2{fill:none;stroke:#333333;stroke-width:4;stroke-miterlimit:10;}
	.st3{fill:#FFFFFF;stroke:#333333;stroke-width:4;stroke-miterlimit:10;}
	.st4{fill:#FFFFFF;stroke:#333333;stroke-width:4;stroke-miterlimit:10;stroke-dasharray:8;}
</style>
<path class="st0" d="M139.89,126.13"/>
<path class="st0" d="M59.41,126.84"/>
<path class="st0" d="M121.1,131.81"/>
<path class="st0" d="M91.31,121.79"/>
<path class="st0" d="M73.97,121.79"/>
<path class="st1" d="M91.61,121.79"/>
<path class="st1" d="M74.28,121.79"/>
<path class="st2" d="M54.72,131.81h92.74v-28.24c0,0-48.75-7.05-92.74,0C54.72,114.99,54.72,131.81,54.72,131.81z"/>
<g>
	<path class="st3" d="M142.41,108.12c-0.04,1.87-1.14,5.23-2.92,1.53c-1.73-3.61-1.61-5.48-4.17-7.76
		c-0.75-0.67-1.91-0.51-2.45,0.34c-1.84,2.89-1.23,4.66-1.9,8.6c-0.7,4.04-2.69,1.11-3.23-0.68c-3.36-13.26-11.7-13.53-7.76-22.79
		c2.39-5.61,8.43-3.37,10.84-2.19c0.62,0.3,1.33,0.2,1.84-0.26c1.99-1.79,7.18-5.59,11.03-0.84
		C150,91.92,142.02,94.45,142.41,108.12z"/>
</g>
<g>
	<path class="st3" d="M105.2,110.24c-0.61,1.76-2.71,4.61-3.25,0.55c-0.53-3.97,0.16-5.71-1.56-8.67c-0.5-0.87-1.66-1.08-2.44-0.44
		c-2.64,2.18-2.62,4.05-4.47,7.59c-1.92,3.63-2.9,0.22-2.86-1.64c0.91-13.64-6.94-16.49-0.32-24.07c4.01-4.6,9.06-0.59,10.98,1.27
		c0.49,0.48,1.2,0.6,1.83,0.33c2.45-1.09,8.56-3.1,10.74,2.62C117.44,97.19,109.07,97.13,105.2,110.24z"/>
</g>
<g>
	<path class="st3" d="M77.57,109.42c0.01,1.87-1.02,5.25-2.89,1.6c-1.82-3.57-1.74-5.44-4.35-7.66c-0.76-0.65-1.92-0.46-2.44,0.4
		c-1.77,2.93-1.12,4.69-1.7,8.64c-0.6,4.06-2.66,1.17-3.24-0.6c-3.66-13.17-12.02-13.25-8.29-22.6c2.26-5.67,8.35-3.57,10.78-2.45
		c0.62,0.29,1.34,0.17,1.84-0.3c1.95-1.84,7.04-5.76,11-1.09C84.79,93.04,76.87,95.76,77.57,109.42z"/>
</g>
<path class="st4" d="M49.7,77.68c9.69-5.93,20.86-10.07,33.07-9.43c12.98,0.69,18.63,6.33,32.76,8.19
	c9.64,1.27,21.22-3.1,34.77-8.26"/>
</svg>
