<?xml version="1.0" encoding="utf-8"?>
<!-- Generator: Adobe Illustrator 27.1.1, SVG Export Plug-In . SVG Version: 6.00 Build 0)  -->
<svg version="1.1" id="Шар_1" xmlns="http://www.w3.org/2000/svg" xmlns:xlink="http://www.w3.org/1999/xlink" x="0px" y="0px"
	 viewBox="0 0 200 200" style="enable-background:new 0 0 200 200;" xml:space="preserve">
<style type="text/css">
	.st0{fill:url(#SVGID_1_);}
	.st1{fill:none;stroke:#FFFFFF;stroke-width:4;stroke-miterlimit:10;}
</style>
<linearGradient id="SVGID_1_" gradientUnits="userSpaceOnUse" x1="0" y1="100" x2="200" y2="100" gradientTransform="matrix(1 0 0 -1 0 200)">
	<stop  offset="8.524463e-08" style="stop-color:#0067BF"/>
	<stop  offset="1" style="stop-color:#55A2FF"/>
</linearGradient>
<circle class="st0" cx="100" cy="100" r="100"/>
<path class="st1" d="M119.2,78.6V93c0,10.6-8.6,19.1-19.1,19.1h-4.9C84.6,112.1,76,103.5,76,93V78.6c0-1,0.1-1.9,0.2-2.9l5.1-4.7
	c4.2-3.9,10-5.6,15.7-4.5l11,2.1c2.9,0.5,5.8,0.7,8.7,0.4C118.3,71.9,119.2,75.1,119.2,78.6z"/>
<path class="st1" d="M130.4,61.8v3l-4.1,1.8c-3.1,1.3-6.3,2.1-9.6,2.4c-2.9,0.3-5.8,0.1-8.7-0.4l-11-2.1c-5.7-1.1-11.5,0.6-15.7,4.5
	l-5.1,4.7L76,76l-0.9-11.8c-0.4-5.1,2.4-10,7.1-12.3l5.8-2.8c5-2.4,10.5-3.7,16.1-3.7h9.7C123,45.4,130.4,52.7,130.4,61.8z"/>
<path class="st1" d="M121.7,120.2l-10.6,10c-2.9,1.5-6.5,0.6-8.4-1.9V148l-6.4-0.2v-21l5.7,0.2l-1-2.2c-1.6-3.5,0.1-7.7,3.7-9
	l13-2.4L121.7,120.2z"/>
<path class="st1" d="M96.7,124.8l-1,2.2c-1.6,3.4-5.7,4.8-9,3.1L76,120.2l3.9-6.6l13,2.4C96.6,117.2,98.3,121.3,96.7,124.8z"/>
<path class="st1" d="M119.5,116.4c26.4,0.9,24.5,31.7,24.5,31.7H55.9c0,0-1.6-31.7,22.3-31.7"/>
</svg>
