<?xml version="1.0" encoding="utf-8"?>
<!-- Generator: Adobe Illustrator 27.1.1, SVG Export Plug-In . SVG Version: 6.00 Build 0)  -->
<svg version="1.1" id="Шар_1" xmlns="http://www.w3.org/2000/svg" xmlns:xlink="http://www.w3.org/1999/xlink" x="0px" y="0px"
	 viewBox="0 0 200 200" style="enable-background:new 0 0 200 200;" xml:space="preserve">
<style type="text/css">
	.st0{fill:url(#SVGID_1_);}
	.st1{fill:none;stroke:#FFFFFF;stroke-width:4;stroke-miterlimit:10;}
</style>
<linearGradient id="SVGID_1_" gradientUnits="userSpaceOnUse" x1="0" y1="100" x2="200" y2="100" gradientTransform="matrix(1 0 0 -1 0 200)">
	<stop  offset="8.524463e-08" style="stop-color:#0067BF"/>
	<stop  offset="1" style="stop-color:#55A2FF"/>
</linearGradient>
<circle class="st0" cx="100" cy="100" r="100"/>
<path class="st1" d="M139.1,157.4H81.8c-2.1,0-3.7-1.7-3.7-3.7v-9.8c0-2.1,1.7-3.7,3.7-3.7h57.3c2.1,0,3.7,1.7,3.7,3.7v9.8
	C142.8,155.7,141.2,157.4,139.1,157.4z"/>
<path class="st1" d="M130.7,140H90.2c-2.1,0-3.7-1.7-3.7-3.7V131c0-2.1,1.7-3.7,3.7-3.7h40.5c2.1,0,3.7,1.7,3.7,3.7v5.3
	C134.4,138.4,132.8,140,130.7,140z"/>
<path class="st1" d="M111.8,127.2H109c-1.8,0-3.2-1.4-3.2-3.2v-19.7c0-1.8,1.4-3.2,3.2-3.2h2.8c1.8,0,3.2,1.4,3.2,3.2V124
	C115,125.8,113.6,127.2,111.8,127.2z"/>
<path class="st1" d="M88.5,101.1h47.1c4.4,0,8.5,2.4,10.7,6.3l5.7,10.4c1.6,2.9,5.3,4,8.2,2.3l0,0c2.8-1.6,3.8-5.2,2.2-8l-6.3-11.4
	c-3.5-6.3-10.2-10.3-17.4-10.3H93.3c-4.3,0-8.5-1.9-11.3-5.2L62.8,62.6c-2-2.4-5.6-2.8-8.1-0.9l0,0c-2.6,2-3.1,5.8-1,8.3l17.9,22.8
	C75.6,98.1,81.9,101.1,88.5,101.1z"/>
<line class="st1" x1="149.6" y1="113.5" x2="159.7" y2="107.3"/>
<line class="st1" x1="89.9" y1="101.1" x2="89.9" y2="79.9"/>
<line class="st1" x1="115" y1="101.1" x2="115" y2="79.9"/>
<path class="st1" d="M116.1,79.9H89.6c-2.5,0-4.6-2.1-4.6-4.6v0c0-2.5,2.1-4.6,4.6-4.6h26.5c2.5,0,4.6,2.1,4.6,4.6v0
	C120.7,77.9,118.7,79.9,116.1,79.9z"/>
<path class="st1" d="M57,54.9h-6.2c-2.6,0-4.7-2.1-4.7-4.7V44c0-2.6,2.1-4.7,4.7-4.7H57c2.6,0,4.7,2.1,4.7,4.7v6.2
	C61.7,52.8,59.6,54.9,57,54.9z"/>
</svg>
