<?xml version="1.0" encoding="utf-8"?>
<!-- Generator: Adobe Illustrator 27.1.1, SVG Export Plug-In . SVG Version: 6.00 Build 0)  -->
<svg version="1.1" id="Шар_1" xmlns="http://www.w3.org/2000/svg" xmlns:xlink="http://www.w3.org/1999/xlink" x="0px" y="0px"
	 viewBox="0 0 200 200" style="enable-background:new 0 0 200 200;" xml:space="preserve">
<style type="text/css">
	.st0{fill:none;stroke:#333333;stroke-width:3;stroke-miterlimit:10;}
	.st1{fill:none;stroke:#000000;stroke-miterlimit:10;}
	.st2{fill:#FFFFFF;stroke:#333333;stroke-width:4;stroke-miterlimit:10;}
	.st3{fill:none;stroke:#333333;stroke-width:4;stroke-miterlimit:10;}
</style>
<path class="st0" d="M139.89,126.13"/>
<path class="st0" d="M59.41,126.84"/>
<path class="st0" d="M121.1,131.81"/>
<path class="st0" d="M91.31,121.79"/>
<path class="st0" d="M73.97,121.79"/>
<path class="st1" d="M91.61,121.79"/>
<path class="st1" d="M74.28,121.79"/>
<g>
	<path class="st2" d="M110.87,108.37c-0.28,2.13-1.96,5.83-3.53,1.38c-1.53-4.35-1.16-6.47-3.79-9.39
		c-0.77-0.86-2.12-0.82-2.84,0.08c-2.46,3.07-1.99,5.18-3.25,9.59c-1.3,4.53-3.21,0.93-3.61-1.18
		c-2.17-15.57-11.68-16.93-6.01-27.02c3.44-6.12,10.06-2.79,12.66-1.15c0.67,0.42,1.5,0.4,2.14-0.06c2.5-1.8,8.9-5.49,12.71,0.43
		C121.58,90.8,112.15,92.7,110.87,108.37z"/>
</g>
<path class="st3" d="M141.07,139.66H62.45c-2.94,0-5.33-2.39-5.33-5.33V55.71c0-2.94,2.39-5.33,5.33-5.33h78.62
	c2.94,0,5.33,2.39,5.33,5.33v78.62C146.4,137.27,144.02,139.66,141.07,139.66z"/>
<line class="st3" x1="116.52" y1="120.5" x2="134.49" y2="120.5"/>
<line class="st3" x1="116.52" y1="126.84" x2="134.49" y2="126.84"/>
<line class="st3" x1="66.11" y1="88.61" x2="96.05" y2="88.61"/>
<line class="st3" x1="66.11" y1="95.02" x2="82.12" y2="95.02"/>
<line class="st3" x1="66.11" y1="101.14" x2="82.12" y2="101.14"/>
<line class="st3" x1="66.11" y1="106.71" x2="75.02" y2="106.71"/>
<line class="st3" x1="111.93" y1="73.15" x2="119.45" y2="61.45"/>
<line class="st3" x1="124.18" y1="62.01" x2="139.89" y2="62.01"/>
<line class="st3" x1="124.18" y1="68.28" x2="139.89" y2="68.28"/>
<line class="st3" x1="124.18" y1="74.68" x2="139.89" y2="74.68"/>
<line class="st3" x1="66.11" y1="60.76" x2="72.79" y2="60.76"/>
<line class="st3" x1="77.25" y1="60.76" x2="84.35" y2="60.76"/>
<line class="st3" x1="88.39" y1="60.76" x2="96.05" y2="60.76"/>
<line class="st3" x1="66.11" y1="121.79" x2="72.79" y2="121.79"/>
<line class="st3" x1="76.41" y1="121.79" x2="92.22" y2="121.79"/>
<line class="st3" x1="66.11" y1="127.88" x2="77.25" y2="127.88"/>
<line class="st3" x1="80.31" y1="127.88" x2="84.35" y2="127.88"/>
<line class="st3" x1="87" y1="127.88" x2="92.22" y2="127.88"/>
</svg>
