<?xml version="1.0" encoding="utf-8"?>
<!-- Generator: Adobe Illustrator 27.1.1, SVG Export Plug-In . SVG Version: 6.00 Build 0)  -->
<svg version="1.1" id="Шар_1" xmlns="http://www.w3.org/2000/svg" xmlns:xlink="http://www.w3.org/1999/xlink" x="0px" y="0px"
	 viewBox="0 0 200 200" style="enable-background:new 0 0 200 200;" xml:space="preserve">
<style type="text/css">
	.st0{fill:none;stroke:#333333;stroke-width:3;stroke-miterlimit:10;}
	.st1{fill:none;stroke:#000000;stroke-miterlimit:10;}
	.st2{fill:none;stroke:#333333;stroke-width:4;stroke-miterlimit:10;}
	.st3{fill:#FFFFFF;stroke:#333333;stroke-width:4;stroke-miterlimit:10;}
</style>
<path class="st0" d="M139.89,128.82"/>
<path class="st0" d="M59.41,129.52"/>
<path class="st0" d="M121.1,134.5"/>
<path class="st0" d="M91.31,124.48"/>
<path class="st0" d="M73.97,124.48"/>
<path class="st1" d="M91.61,124.48"/>
<path class="st1" d="M74.28,124.48"/>
<path class="st2" d="M54.72,134.5h92.74v-28.24c0,0-48.75-7.05-92.74,0C54.72,117.67,54.72,134.5,54.72,134.5z"/>
<g>
	<path class="st3" d="M90.79,111.69c-0.42,2.61-2.62,7.11-4.4,1.58c-1.73-5.41-1.2-8-4.34-11.7c-0.92-1.08-2.58-1.08-3.5,0
		c-3.14,3.69-2.63,6.3-4.34,11.7c-1.76,5.53-3.98,1.03-4.4-1.58c-2.13-19.25-13.79-21.25-6.45-33.47
		c4.45-7.41,12.48-3.09,15.63-0.97c0.81,0.54,1.83,0.54,2.63,0c3.14-2.13,11.15-6.45,15.63,0.97
		C104.59,90.44,92.91,92.45,90.79,111.69z"/>
</g>
<g>
	<path class="st3" d="M134.35,111.69c-0.42,2.61-2.62,7.11-4.4,1.58c-1.73-5.41-1.2-8-4.34-11.7c-0.92-1.08-2.58-1.08-3.5,0
		c-3.14,3.69-2.63,6.3-4.34,11.7c-1.76,5.53-3.98,1.03-4.4-1.58c-2.13-19.25-13.79-21.25-6.45-33.47
		c4.45-7.41,12.48-3.09,15.63-0.97c0.81,0.54,1.83,0.54,2.63,0c3.14-2.13,11.15-6.45,15.63,0.97
		C148.15,90.44,136.47,92.45,134.35,111.69z"/>
</g>
<path class="st3" d="M96.02,91.31H64.63c-1.25,0-2.27-1.01-2.27-2.27l0,0c0-1.25,1.01-2.27,2.27-2.27h31.39
	c1.25,0,2.27,1.01,2.27,2.27l0,0C98.29,90.29,97.27,91.31,96.02,91.31z"/>
<path class="st3" d="M139.01,91.31h-31.39c-1.25,0-2.27-1.01-2.27-2.27l0,0c0-1.25,1.01-2.27,2.27-2.27h31.39
	c1.25,0,2.27,1.01,2.27,2.27l0,0C141.28,90.29,140.26,91.31,139.01,91.31z"/>
<path class="st3" d="M84.75,92.78h-9.44c-1.4,0-2.54-1.14-2.54-2.54v-2.38c0-1.4,1.14-2.54,2.54-2.54h9.44
	c1.4,0,2.54,1.14,2.54,2.54v2.38C87.29,91.64,86.15,92.78,84.75,92.78z"/>
<path class="st3" d="M128.59,92.78h-9.44c-1.4,0-2.54-1.14-2.54-2.54v-2.38c0-1.4,1.14-2.54,2.54-2.54h9.44
	c1.4,0,2.54,1.14,2.54,2.54v2.38C131.13,91.64,129.99,92.78,128.59,92.78z"/>
</svg>
