<?xml version="1.0" encoding="utf-8"?>
<!-- Generator: Adobe Illustrator 27.1.1, SVG Export Plug-In . SVG Version: 6.00 Build 0)  -->
<svg version="1.1" id="Шар_1" xmlns="http://www.w3.org/2000/svg" xmlns:xlink="http://www.w3.org/1999/xlink" x="0px" y="0px"
	 viewBox="0 0 200 200" style="enable-background:new 0 0 200 200;" xml:space="preserve">
<style type="text/css">
	.st0{fill:none;stroke:#333333;stroke-width:3;stroke-miterlimit:10;}
	.st1{fill:none;stroke:#000000;stroke-miterlimit:10;}
	.st2{fill:#FFFFFF;stroke:#333333;stroke-width:4;stroke-miterlimit:10;}
	.st3{fill:none;stroke:#333333;stroke-width:4;stroke-miterlimit:10;}
</style>
<path class="st0" d="M140.24,113.72"/>
<path class="st0" d="M59.76,114.43"/>
<path class="st0" d="M121.45,119.41"/>
<path class="st0" d="M91.66,109.38"/>
<path class="st0" d="M74.33,109.38"/>
<path class="st1" d="M91.97,109.38"/>
<path class="st1" d="M74.63,109.38"/>
<g>
	<path class="st2" d="M110.48,96.6c-0.42,2.61-2.62,7.11-4.4,1.58c-1.73-5.41-1.2-8-4.34-11.7c-0.92-1.08-2.58-1.08-3.5,0
		c-3.14,3.69-2.63,6.3-4.34,11.7c-1.76,5.53-3.98,1.03-4.4-1.58c-2.13-19.25-13.79-21.25-6.45-33.47
		c4.45-7.41,12.48-3.09,15.63-0.97c0.81,0.54,1.83,0.54,2.63,0c3.14-2.13,11.15-6.45,15.63,0.97
		C124.28,75.35,112.6,77.35,110.48,96.6z"/>
</g>
<path class="st3" d="M132.57,47.39v35.6c0,0-3.02,34.55-32.57,34.55c-27.5,0-32.57-28.74-32.57-28.74V50.24
	c0,0,17.73-1.81,32.57-13.01C113.37,45.94,132.57,47.39,132.57,47.39z"/>
<path class="st3" d="M138.38,42.41l0.09,41.97c0,0-3.56,39.98-38.38,39.98c-32.41,0-38.38-33.26-38.38-33.26l-0.09-45.39
	c0,0,20.89-2.78,38.38-15.74C115.75,40.05,138.38,42.41,138.38,42.41z"/>
</svg>
