<?xml version="1.0" encoding="utf-8"?>
<!-- Generator: Adobe Illustrator 27.1.1, SVG Export Plug-In . SVG Version: 6.00 Build 0)  -->
<svg version="1.1" id="Шар_1" xmlns="http://www.w3.org/2000/svg" xmlns:xlink="http://www.w3.org/1999/xlink" x="0px" y="0px"
	 viewBox="0 0 200 200" style="enable-background:new 0 0 200 200;" xml:space="preserve">
<style type="text/css">
	.st0{fill:none;stroke:#333333;stroke-width:3;stroke-miterlimit:10;}
	.st1{fill:none;stroke:#000000;stroke-miterlimit:10;}
	.st2{fill:#FFFFFF;stroke:#333333;stroke-width:4;stroke-miterlimit:10;}
</style>
<path class="st0" d="M157.79,138.71"/>
<path class="st0" d="M60.76,139.56"/>
<path class="st0" d="M135.14,145.56"/>
<path class="st0" d="M99.22,133.48"/>
<path class="st0" d="M78.33,133.48"/>
<path class="st1" d="M99.59,133.48"/>
<path class="st1" d="M78.7,133.48"/>
<g>
	<path class="st2" d="M110.21,117.29c-0.33,2.56-2.37,7.03-4.26,1.66c-1.84-5.24-1.39-7.8-4.57-11.32c-0.93-1.03-2.56-0.99-3.43,0.1
		c-2.97,3.7-2.4,6.24-3.92,11.57c-1.57,5.46-3.87,1.12-4.35-1.42C87.07,99.11,75.6,97.47,82.44,85.3
		c4.15-7.38,12.12-3.37,15.27-1.38c0.8,0.51,1.8,0.48,2.58-0.07c3.01-2.17,10.73-6.62,15.32,0.51
		C123.12,96.12,111.74,98.4,110.21,117.29z"/>
</g>
<path class="st2" d="M114.02,87.93c-2.8-6.06-9.21-9.21-9.21-9.21s6.23-2.59,9.66-9.66c2.94,6.43,9.21,9.21,9.21,9.21
	S118.05,81.41,114.02,87.93z"/>
<path class="st2" d="M78.1,133.48c-2.8-6.06-9.21-9.21-9.21-9.21s6.23-2.59,9.66-9.66c2.94,6.43,9.21,9.21,9.21,9.21
	S82.13,126.96,78.1,133.48z"/>
</svg>
