<?xml version="1.0" encoding="utf-8"?>
<!-- Generator: Adobe Illustrator 27.1.1, SVG Export Plug-In . SVG Version: 6.00 Build 0)  -->
<svg version="1.1" id="Шар_1" xmlns="http://www.w3.org/2000/svg" xmlns:xlink="http://www.w3.org/1999/xlink" x="0px" y="0px"
	 viewBox="0 0 200 100" style="enable-background:new 0 0 200 100;" xml:space="preserve">
<style type="text/css">
	.st0{fill:none;stroke:#333333;stroke-width:4;stroke-miterlimit:10;}
	.st1{fill:none;}
	.st2{fill:#333333;}
	.st3{font-family:'ArialMT';}
	.st4{font-size:48.1603px;}
</style>
<g>
	<path class="st0" d="M31.44,63.96c-0.33,2.07-2.08,5.64-3.49,1.25c-1.37-4.29-0.95-6.35-3.44-9.28c-0.73-0.86-2.05-0.86-2.78,0
		c-2.49,2.93-2.09,5-3.44,9.28c-1.4,4.39-3.16,0.82-3.49-1.25C13.11,48.69,3.86,47.1,9.68,37.4c3.53-5.88,9.9-2.45,12.4-0.77
		c0.64,0.43,1.45,0.43,2.09,0c2.49-1.69,8.85-5.12,12.4,0.77C42.39,47.1,33.12,48.69,31.44,63.96z"/>
</g>
<rect x="45.67" y="32.82" class="st1" width="154.33" height="41.88"/>
<text transform="matrix(0.9524 0 0 1 45.6738 67.3017)" class="st2 st3 st4">CLINIC</text>
</svg>
